<?xml version="1.0" encoding="utf-8"?>
<svg viewBox="0 0 500 500" xmlns="http://www.w3.org/2000/svg">
  <path class="cls-1" d="M 457.91 45.294 L -5.89 227.494 C -12.17 229.954 -16.32 235.994 -16.4 242.754 C -16.47 249.504 -12.44 255.614 -6.21 258.204 L 111.9 307.414 L 83.48 421.114 C 82.07 426.754 83.72 432.734 87.84 436.834 C 90.99 439.974 95.22 441.684 99.55 441.684 C 100.88 441.684 102.23 441.524 103.57 441.184 L 217.26 412.764 L 266.48 530.884 C 269.05 537.064 275.09 541.074 281.76 541.074 L 281.93 541.074 C 288.68 541.004 294.71 536.854 297.18 530.564 L 479.38 66.754 C 481.79 60.624 480.33 53.654 475.67 48.994 C 471.01 44.314 464.03 42.864 457.9 45.284 L 457.91 45.294 Z M 122.32 402.364 L 142.83 320.304 L 186.27 338.404 L 204.37 381.854 L 122.31 402.364 L 122.32 402.364 Z M 195.07 306.184 L 44.32 243.364 L 396.08 105.174 L 195.07 306.184 L 195.07 306.184 Z M 281.31 480.364 L 218.49 329.604 L 419.5 128.594 L 281.31 480.364 Z" style="stroke-width: 0px; fill: #1F4AF3;"/>
</svg>