<?xml version="1.0" encoding="UTF-8"?>
<svg id="Capa_1" data-name="Capa 1" xmlns="http://www.w3.org/2000/svg" viewBox="0 0 517.72 519.53">
  <defs>
    <style>
      .cls-1 {
        stroke-width: 0px;
      }
    </style>
  </defs>
  <path class="cls-1" d="m268.17,55.8V10.22c0-5.64-4.58-10.22-10.22-10.22s-10.22,4.58-10.22,10.22v45.58c0,5.64,4.58,10.22,10.22,10.22s10.22-4.58,10.22-10.22Z"/>
  <path class="cls-1" d="m507.74,351.07l-18.05-18c-6.42-6.41-14.98-9.95-24.1-9.95-5.83,0-11.43,1.45-16.39,4.17l-34.02-33.98,1.66-1.66c13.8-13.83,13.8-36.3,0-50.08-4.93-4.94-11.08-8.23-17.79-9.62.92-3.19,1.41-6.53,1.41-9.94,0-9.49-3.69-18.39-10.36-25.04-4.93-4.94-11.08-8.23-17.79-9.62.92-3.19,1.41-6.52,1.41-9.94,0-9.49-3.69-18.39-10.37-25.05-5.05-5.04-11.26-8.24-17.77-9.59,3.49-12.02.51-25.55-8.95-35.02-7.87-7.84-18.55-11.21-28.85-10.12l-67.41-12.76c-10.28-1.95-23.12-3.24-31.22,4.15-.51.47-1.03,1-1.55,1.6-12.57-4.58-27.22-1.85-37.29,8.2-6.68,6.67-10.35,15.56-10.35,25.05,0,3.42.48,6.75,1.41,9.94-6.7,1.39-12.84,4.67-17.76,9.6-6.69,6.66-10.38,15.55-10.38,25.02,0,3.43.48,6.77,1.41,9.97-6.7,1.38-12.85,4.67-17.78,9.59-6.69,6.68-10.37,15.58-10.37,25.07,0,7.26,2.17,14.18,6.19,20.03-5.07,1.72-9.72,4.58-13.61,8.47-13.81,13.79-13.82,36.26,0,50.11l1.65,1.64-34.02,33.96c-12.64-5.95-28.22-3.72-38.66,6.7l-18.06,18.01C3.54,358.41,0,366.97,0,376.1c0,9.13,3.54,17.69,9.96,24.11l22.54,22.52c3.99,3.99,10.46,3.98,14.45,0,3.99-3.99,3.98-10.46,0-14.45l-22.54-22.52c-2.56-2.56-3.97-5.98-3.97-9.64s1.41-7.09,3.96-9.64l18.06-18.01c4.51-4.51,11.42-5.18,16.67-2.04.37.56.8,1.08,1.29,1.57.88.88,1.88,1.55,2.94,2.04l103.59,103.44c.49,1.07,1.17,2.08,2.05,2.96.86.86,1.84,1.52,2.88,2.01,2.19,2.48,3.4,5.64,3.4,9.02,0,3.66-1.41,7.09-3.97,9.64l-18.05,18.03c-5.33,5.31-14.01,5.31-19.32.02l-22.54-22.55c-3.99-3.99-10.46-3.99-14.45,0-3.99,3.99-3.99,10.46,0,14.45l22.56,22.56c6.64,6.61,15.36,9.92,24.09,9.92s17.46-3.31,24.11-9.93l18.06-18.04c6.43-6.42,9.96-14.98,9.96-24.11,0-6.51-1.81-12.73-5.18-18.1l38.29-38.24s.08-.08.12-.12c4.38-4.53,16.59-3.68,28.4-2.86,8.39.58,17.74,1.23,26.88.18l41.93,41.88c-2.72,4.95-4.17,10.54-4.17,16.37,0,9.12,3.54,17.67,9.96,24.09l18.06,18.04c6.42,6.41,14.98,9.95,24.1,9.95s17.68-3.53,24.1-9.95l109.53-109.4c6.43-6.42,9.96-14.98,9.96-24.1,0-9.13-3.54-17.69-9.97-24.11h0ZM236.55,104.96l44.33,8.39-26.53,26.52c-4.1-1.97-9.73-5.65-15.9-11.56-8.45-8.08-14.49-17.41-15.04-23.23,0,0,0,0,0,0,0,0,0,0,0,0-.04-.42-.05-.75-.04-1.01,1.34-.32,4.89-.68,13.19.89Zm-51.81,8.33c5.18-5.17,13.22-5.77,19.07-1.81,3.32,13.9,15.17,26.5,20.51,31.6,3.95,3.78,16.64,15.12,29.44,18.24,1.73,2.48,2.67,5.44,2.67,8.57,0,4.02-1.55,7.78-4.37,10.6-2.81,2.82-6.58,4.37-10.61,4.37s-7.8-1.55-10.62-4.38h0s0,0,0,0l-46.09-46c-2.81-2.81-4.36-6.57-4.36-10.59,0-4.02,1.55-7.78,4.36-10.59Zm-26.7,44.59c2.81-2.82,6.58-4.37,10.6-4.37s7.81,1.55,10.64,4.38l37.11,37.04c5.84,5.85,5.84,15.38.02,21.21-2.83,2.82-6.61,4.37-10.65,4.37s-7.82-1.55-10.63-4.35h0s-28.15-28.15-28.15-28.15c-.04-.04-.09-.08-.14-.13l-8.81-8.8c-2.83-2.82-4.38-6.59-4.38-10.61,0-4.01,1.55-7.76,4.39-10.58Zm-26.75,44.58c2.81-2.81,6.59-4.36,10.62-4.36s7.74,1.53,10.54,4.29l28.24,28.23c2.82,2.8,4.37,6.56,4.37,10.58s-1.55,7.77-4.38,10.59c-2.81,2.81-6.58,4.36-10.61,4.36s-7.82-1.55-10.63-4.36l-10.24-10.23s0,0,0,0l-17.91-17.89c-2.82-2.82-4.38-6.59-4.38-10.6s1.55-7.78,4.38-10.6Zm-17.8,53.56c2.83-2.82,6.6-4.38,10.63-4.38s7.81,1.55,10.63,4.37l10.25,10.24c2.82,2.8,4.37,6.56,4.37,10.58s-1.55,7.77-4.39,10.6c-2.81,2.82-6.58,4.37-10.61,4.37s-7.8-1.55-10.63-4.39l-1.28-1.28s-.03-.04-.05-.05c-.02-.02-.04-.03-.06-.05l-8.86-8.82c-5.84-5.86-5.85-15.36-.01-21.19Zm192.44,145.07c2.35-1.51,4.6-3.29,6.71-5.4l9.09-9.08c3.99-3.99,4-10.46.01-14.45h0c-3.99-3.99-10.46-4-14.45,0l-9.09,9.08c-8.64,8.64-24.29,7.55-39.43,6.5-16.44-1.14-33.44-2.32-44.44,8.97l-37.64,37.59-94.13-93.99,33.31-33.25c5.51,3.37,11.86,5.18,18.51,5.18,9.5,0,18.4-3.68,25.05-10.34,6.7-6.67,10.38-15.57,10.38-25.06,0-.09,0-.18,0-.26.09,0,.18,0,.26,0,9.48,0,18.38-3.67,25.04-10.32,6.7-6.67,10.38-15.57,10.38-25.06,0-.09,0-.18,0-.26.09,0,.18,0,.27,0,9.48,0,18.38-3.67,25.09-10.34,6.96-6.97,10.4-16.15,10.34-25.31.09,0,.18,0,.27,0,9.5,0,18.4-3.68,25.06-10.36,6.68-6.67,10.35-15.56,10.35-25.05,0-6.64-1.8-12.98-5.17-18.47l29.2-29.18c2.18-2.17,4.86-3.53,7.67-4.09.3-.03.6-.08.9-.14,4.51-.62,9.25.77,12.7,4.21,5.84,5.85,5.84,15.38.02,21.21l-8.89,8.86s-.06.06-.09.09l-10.24,10.22c-3.99,3.99-4,10.46,0,14.45,3.99,3.99,10.46,4,14.45,0l8.93-8.92s0,0,0,0l1.35-1.34c5.86-5.81,15.35-5.79,21.21.05,2.82,2.8,4.37,6.56,4.37,10.58s-1.55,7.77-4.39,10.6l-8.94,8.96s0,0,0,0l-10.24,10.2c-4,3.98-4.01,10.45-.03,14.45,3.98,4,10.45,4.01,14.45.03l10.29-10.25c2.81-2.82,6.58-4.37,10.61-4.37s7.8,1.55,10.63,4.39c2.82,2.81,4.37,6.56,4.37,10.58s-1.55,7.77-4.38,10.6l-17.83,17.84c-3.99,3.99-3.99,10.46,0,14.45,2,1.99,4.61,2.99,7.22,2.99s5.23-1,7.23-2.99l8.74-8.74s.1-.09.15-.14c2.81-2.82,6.58-4.37,10.61-4.37s7.8,1.55,10.62,4.38c5.84,5.83,5.83,15.34,0,21.18l-8.88,8.87s0,0-.01,0c0,0,0,0,0,.01l-14.1,14.08c-3.99,3.99-4,10.46,0,14.45,2,2,4.61,3,7.23,3s5.23-1,7.22-2.99l6.9-6.89,33.06,33.02-94.12,94-33.72-33.68Zm187.37-16.27l-109.53,109.4c-2.56,2.56-5.99,3.97-9.66,3.97s-7.09-1.41-9.66-3.97l-18.06-18.04c-2.56-2.55-3.97-5.97-3.97-9.63s1.41-7.07,3.97-9.63l109.53-109.4c2.56-2.56,5.99-3.97,9.66-3.97s7.09,1.41,9.66,3.98l18.05,18c2.56,2.56,3.97,5.98,3.97,9.64,0,3.66-1.41,7.09-3.97,9.64Z"/>
  <path class="cls-1" d="m85,5.79c-3.99,3.99-3.98,10.46.01,14.45l37.24,37.16c1.99,1.99,4.61,2.99,7.22,2.99s5.24-1,7.23-3c3.99-3.99,3.98-10.46-.01-14.45L99.46,5.77c-3.99-3.99-10.46-3.98-14.45.01Z"/>
  <path class="cls-1" d="m416.42,5.77l-37.21,37.16c-3.99,3.99-4,10.46,0,14.45,2,2,4.61,3,7.23,3s5.23-1,7.22-2.99l37.21-37.16c3.99-3.99,4-10.46,0-14.45-3.99-3.99-10.46-4-14.45,0Z"/>
  <path class="cls-1" d="m62.84,439.57c-3.96,4.02-3.9,10.5.12,14.45l.03.03c1.99,1.95,4.56,2.92,7.14,2.92s5.29-1.02,7.29-3.06c3.96-4.02,3.89-10.51-.14-14.47-4.02-3.96-10.49-3.9-14.45.12Z"/>
  <path class="cls-1" d="m342.15,338.1l-.06.03c-5.04,2.54-7.04,8.67-4.49,13.71,1.79,3.56,5.4,5.61,9.14,5.61,1.55,0,3.13-.35,4.61-1.1,5.04-2.54,7.06-8.69,4.52-13.73-2.54-5.04-8.69-7.06-13.73-4.52Z"/>
</svg>