<?xml version="1.0" encoding="UTF-8"?>
<svg id="Capa_1" data-name="Capa 1" xmlns="http://www.w3.org/2000/svg" viewBox="0 0 444.18 495.94">
  <defs>
    <style>
      .cls-1 {
        stroke-width: 0px;
      }
    </style>
  </defs>
  <path class="cls-1" d="m113.95,187.5l26.1,5.83.17.56c1.72,5.73,4.03,11.3,6.86,16.55l.28.51-14.33,22.64c-2.36,3.72-1.83,8.5,1.29,11.62l15,15c1.77,1.77,4.12,2.74,6.62,2.74,1.77,0,3.5-.5,5-1.45l22.64-14.34.51.28c5.29,2.84,10.86,5.15,16.55,6.86l.56.17,5.83,26.1c.96,4.31,4.72,7.31,9.13,7.31h21.23c4.41,0,8.17-3.01,9.13-7.31l5.83-26.1.56-.17c5.72-1.72,11.29-4.03,16.55-6.86l.51-.28,22.64,14.33c1.5.95,3.23,1.45,5,1.45,2.5,0,4.85-.97,6.62-2.74l15-15c3.12-3.12,3.65-7.89,1.29-11.62l-14.34-22.64.28-.51c2.84-5.29,5.15-10.86,6.86-16.55l.17-.56,26.1-5.83c4.31-.96,7.31-4.72,7.31-9.13v-21.23c0-4.41-3.01-8.17-7.31-9.13l-26.1-5.83-.17-.56c-1.72-5.69-4.03-11.26-6.86-16.55l-.28-.51,14.34-22.64c2.36-3.72,1.83-8.5-1.29-11.62l-15-15c-1.77-1.77-4.12-2.74-6.62-2.74-1.78,0-3.51.5-5.01,1.46l-22.63,14.36-.52-.28c-5.23-2.82-10.8-5.13-16.55-6.87l-.56-.17-5.83-26.12c-.96-4.31-4.72-7.31-9.13-7.31h-21.23c-4.41,0-8.17,3.01-9.13,7.31l-5.83,26.12-.56.17c-5.74,1.74-11.31,4.05-16.55,6.87l-.52.28-22.63-14.36c-1.5-.95-3.23-1.46-5.01-1.46-2.5,0-4.85.97-6.62,2.74l-15,15c-3.12,3.12-3.65,7.89-1.29,11.62l14.34,22.64-.28.51c-2.84,5.29-5.15,10.85-6.86,16.55l-.17.56-26.1,5.83c-4.31.96-7.31,4.71-7.31,9.13v21.23c0,4.41,3.01,8.17,7.31,9.13Zm11.39-22.87l24.37-5.44c3.52-.79,6.31-3.57,7.09-7.1,1.78-8.01,4.95-15.65,9.41-22.71,1.92-3.04,1.92-6.96,0-10l-13.38-21.14,4.41-4.41,21.14,13.42c1.5.95,3.23,1.46,5.01,1.46s3.53-.51,5.03-1.47c6.91-4.41,14.56-7.59,22.72-9.45,3.5-.79,6.27-3.58,7.06-7.08l5.44-24.37h6.24l5.44,24.37c.78,3.51,3.55,6.29,7.06,7.08,8.17,1.86,15.81,5.04,22.72,9.45,1.51.96,3.25,1.47,5.03,1.47s3.51-.5,5.01-1.46l21.14-13.42,4.41,4.41-13.39,21.14c-1.92,3.04-1.92,6.96,0,10,4.47,7.06,7.63,14.7,9.41,22.71.78,3.53,3.57,6.31,7.09,7.1l24.37,5.44v6.24l-24.37,5.44c-3.52.79-6.31,3.57-7.09,7.1-1.78,8.01-4.95,15.65-9.41,22.71-1.92,3.04-1.92,6.97,0,10l13.39,21.14-4.41,4.41-21.14-13.39c-1.5-.95-3.23-1.45-5-1.45s-3.52.5-5.02,1.46c-6.98,4.44-14.62,7.61-22.69,9.4-3.52.78-6.31,3.57-7.1,7.09l-5.44,24.37h-6.24l-5.44-24.37c-.79-3.52-3.57-6.31-7.1-7.09-8.01-1.78-15.65-4.95-22.71-9.41-1.5-.95-3.23-1.45-5-1.45s-3.5.5-5,1.45l-21.14,13.39-4.41-4.41,13.38-21.14c1.93-3.05,1.92-6.98-.01-10.02-4.44-6.98-7.6-14.62-9.4-22.69-.78-3.53-3.57-6.31-7.09-7.1l-24.37-5.44v-6.25Z"/>
  <path class="cls-1" d="m226.8,208.72c22.57,0,40.93-18.36,40.93-40.93s-18.36-41-40.93-41-40.99,18.39-40.99,41,18.39,40.93,40.99,40.93Zm0-63.22c12.25,0,22.22,10,22.22,22.29s-9.97,22.22-22.22,22.22-22.29-9.97-22.29-22.22,10-22.29,22.29-22.29Z"/>
  <path class="cls-1" d="m157.27,321.32l.59.27v30.53l-.87.12c-12.31,1.66-21.59,12.27-21.59,24.7,0,8.78,4.5,16.75,12.04,21.33l.71.43-.29.77c-2.86,7.73-1.78,16.06,2.95,22.85s12.18,10.69,20.44,10.69h11.37l-.25,1.2c-1.51,7.36.35,14.93,5.11,20.76,4.76,5.84,11.8,9.19,19.31,9.19h39.94c7.51,0,14.55-3.35,19.31-9.19,4.76-5.83,6.62-13.4,5.11-20.76l-.25-1.2h11.37c8.26,0,15.71-3.9,20.44-10.69,4.73-6.8,5.81-15.13,2.95-22.86l-.29-.77.71-.43c7.54-4.57,12.04-12.55,12.04-21.33,0-12.43-9.28-23.04-21.59-24.7l-.87-.12v-30.53l.59-.27c59.94-27.2,98.67-87.32,98.67-153.16,0-44.94-17.48-87.18-49.22-118.93C313.96,17.49,271.73,0,226.79,0,134.74,0,59.29,74.87,58.61,166.89c-.49,66.4,38.24,127.01,98.66,154.43Zm89.46,124.13h-39.94c-3.43,0-6.22-2.79-6.22-6.22s2.79-6.22,6.22-6.22h39.94c3.43,0,6.22,2.79,6.22,6.22s-2.79,6.22-6.22,6.22Zm35.55-31.15h-111.04c-3.43,0-6.22-2.79-6.22-6.22s2.79-6.22,6.22-6.22h111.04c3.43,0,6.22,2.79,6.22,6.22s-2.79,6.22-6.22,6.22Zm17.14-37.37c0,3.43-2.79,6.22-6.22,6.22h-132.87c-3.43,0-6.22-2.79-6.22-6.22s2.79-6.22,6.22-6.22h132.87c3.43,0,6.22,2.79,6.22,6.22ZM226.78,18.71c.64,0,1.29,0,1.93.01,81.34,1.04,147.51,68.08,147.51,149.44,0,61.21-36.67,115.6-93.41,138.58-3.55,1.44-5.84,4.84-5.84,8.67v36.59h-20.14v-32.06c0-5.16-4.2-9.35-9.35-9.35s-9.35,4.2-9.35,9.35v32.06h-22.71v-32.06c0-5.16-4.2-9.35-9.35-9.35s-9.35,4.2-9.35,9.35v32.06h-20.14v-36.59c0-3.83-2.29-7.23-5.84-8.67-57.2-23.16-93.87-78-93.41-139.71.61-81.78,67.66-148.32,149.47-148.32Z"/>
  <path class="cls-1" d="m412.12,485.59c0-5.16-4.2-9.35-9.35-9.35H50.76c-5.16,0-9.35,4.2-9.35,9.35s4.2,9.35,9.35,9.35h352c5.16,0,9.35-4.2,9.35-9.35Z"/>
  <rect class="cls-1" x="372.71" y="20.71" width="39.41" height="18.71"/>
  <rect class="cls-1" x="424.47" y="20.71" width="18.71" height="18.71"/>
  <rect class="cls-1" x="10.35" y="320.94" width="39.41" height="18.71"/>
  <rect class="cls-1" x="62.12" y="320.94" width="18.71" height="18.71"/>
  <circle class="cls-1" cx="423.47" cy="102.53" r="10.35"/>
  <path class="cls-1" d="m424.47,288.88c0,5.16,4.2,9.35,9.35,9.35s9.35-4.2,9.35-9.35-4.2-9.35-9.35-9.35-9.35,4.2-9.35,9.35Z"/>
  <path class="cls-1" d="m331.29,433.82c0,5.16,4.2,9.35,9.35,9.35s9.35-4.2,9.35-9.35-4.2-9.35-9.35-9.35-9.35,4.2-9.35,9.35Z"/>
  <circle class="cls-1" cx="433.82" cy="485.59" r="10.35" transform="translate(-72.18 75.76) rotate(-9.22)"/>
  <path class="cls-1" d="m93.18,371.71c0,5.16,4.2,9.35,9.35,9.35s9.35-4.2,9.35-9.35-4.2-9.35-9.35-9.35-9.35,4.2-9.35,9.35Z"/>
  <path class="cls-1" d="m39.41,247.47c0-5.16-4.2-9.35-9.35-9.35s-9.35,4.2-9.35,9.35,4.2,9.35,9.35,9.35,9.35-4.2,9.35-9.35Z"/>
  <path class="cls-1" d="m91.18,19.71c0-5.16-4.2-9.35-9.35-9.35s-9.35,4.2-9.35,9.35,4.2,9.35,9.35,9.35,9.35-4.2,9.35-9.35Z"/>
  <path class="cls-1" d="m30.06,91.18c16.57,0,30.06-13.48,30.06-30.06s-13.48-30.06-30.06-30.06S0,44.54,0,61.12s13.48,30.06,30.06,30.06Zm0-41.41c6.26,0,11.35,5.09,11.35,11.35s-5.09,11.35-11.35,11.35-11.35-5.09-11.35-11.35,5.09-11.35,11.35-11.35Z"/>
  <path class="cls-1" d="m422.47,356.18c0-19.43-15.81-35.24-35.24-35.24s-35.24,15.81-35.24,35.24,15.81,35.24,35.24,35.24,35.24-15.81,35.24-35.24Zm-35.24,16.53c-9.11,0-16.53-7.42-16.53-16.53s7.42-16.53,16.53-16.53,16.53,7.42,16.53,16.53-7.42,16.53-16.53,16.53Z"/>
  <path class="cls-1" d="m20.71,428.65c0,13.72,11.16,24.88,24.88,24.88s24.88-11.16,24.88-24.88-11.16-24.88-24.88-24.88-24.88,11.16-24.88,24.88Zm31.06,0c0,3.41-2.77,6.18-6.18,6.18s-6.18-2.77-6.18-6.18,2.77-6.18,6.18-6.18,6.18,2.77,6.18,6.18Z"/>
</svg>