<?xml version="1.0" encoding="utf-8"?>
<!-- Generator: Adobe Illustrator 28.0.0, SVG Export Plug-In . SVG Version: 6.00 Build 0)  -->
<svg version="1.1" id="Ebene_1" xmlns="http://www.w3.org/2000/svg" xmlns:xlink="http://www.w3.org/1999/xlink" x="0px" y="0px"
	 viewBox="0 0 619.81 272.78" style="enable-background:new 0 0 619.81 272.78;" xml:space="preserve">
<g>
	<polygon points="434.56,67.44 426.91,67.44 426.91,67.47 398.98,67.47 398.98,75.12 420.05,75.12 420.05,135.72 427.7,135.72 
		427.7,75.12 448.77,75.12 448.77,67.47 434.56,67.47 	"/>
	<rect x="543.83" y="67.44" width="7.65" height="68.28"/>
	<rect x="432.68" y="146.54" width="7.65" height="58.38"/>
	<polygon points="395.62,187.12 376.01,146.48 367.54,146.48 391.39,196.03 395.62,204.96 399.86,196.04 423.7,146.48 
		415.24,146.48 	"/>
	<polygon points="456.43,171.86 456.43,174.36 456.43,197.15 456.43,198.88 456.43,204.8 500.68,204.8 500.68,197.15 464.08,197.15 
		464.08,179.52 487.19,179.52 487.19,171.86 464.08,171.86 464.08,154.18 500.68,154.18 500.68,146.53 456.43,146.53 	"/>
	<polygon points="487.33,117.57 510.4,117.57 506.77,109.92 490.96,109.92 503.09,84.37 527.65,136.1 536.12,136.1 507.33,75.45 
		503.1,66.54 498.86,75.46 470.07,136.1 478.53,136.1 	"/>
	<polygon points="279.79,136.1 288.58,117.57 311.66,117.57 308.02,109.92 292.22,109.92 304.35,84.37 328.91,136.1 337.37,136.1 
		308.58,75.45 304.35,66.54 300.11,75.46 271.32,136.1 	"/>
	<polygon points="289.63,146.57 289.59,146.54 266.37,186.76 243.18,146.59 243.18,146.52 235.53,146.52 235.53,204.77 
		243.18,204.77 243.18,161.89 261.96,194.41 266.37,202.06 270.79,194.41 289.63,161.77 289.63,204.77 297.28,204.77 297.28,146.52 
		289.63,146.52 	"/>
	<path d="M136.4,74.99c16.27,0,31.57,6.34,43.08,17.84c8.49,8.49,14.17,19.05,16.56,30.55l6.98-3.78
		c-7.32-30-34.37-52.26-66.62-52.26c-18.67,0-35.59,7.46-47.95,19.56l7.08,3.83C106.75,80.56,121.15,74.99,136.4,74.99z"/>
	<path d="M197.16,131.47c0.11,1.47,0.16,2.96,0.16,4.45c0,16.27-6.34,31.57-17.84,43.08c-11.51,11.51-26.81,17.84-43.08,17.84
		c-16.27,0-31.57-6.34-43.08-17.84c-11.51-11.51-17.84-26.81-17.84-43.08c0-14.63,5.13-28.47,14.52-39.48l-6.86-3.71
		c-9.57,11.79-15.31,26.82-15.31,43.19c0,37.87,30.7,68.58,68.58,68.58c37.87,0,68.58-30.7,68.58-68.58c0-2.84-0.18-5.64-0.51-8.4
		L197.16,131.47z"/>
	<polygon points="109.38,165.76 163.63,136.4 171.67,132.06 163.63,127.71 109.38,98.35 109.38,107.05 155.6,132.06 109.38,157.06 	
		"/>
	<polygon points="109.38,179.43 184.17,138.96 176.14,134.61 109.38,170.73 	"/>
	<polygon points="243.18,114.24 273.45,114.24 273.45,106.58 243.2,106.61 235.53,110.76 235.53,135.58 243.18,135.58 	"/>
	<polygon points="243.18,74.8 280.26,74.8 280.26,67.16 235.55,67.16 235.55,67.26 235.53,67.26 235.53,102.06 243.18,97.93 	"/>
	<path d="M387.86,117.41v-1.09c0-10.41-8.45-18.87-18.87-18.87h-0.15l-7.66-0.02c-2.42-0.07-4.65-0.93-6.45-2.32l-7.17,3.88
		c3.39,3.73,8.22,6.11,13.62,6.2l7.66,0.02h0.15c6.13,0,11.11,4.97,11.11,11.11v1.09c0,6.13-4.97,11.11-11.11,11.11h-26.09v7.76
		h26.09C379.4,136.27,387.86,127.82,387.86,117.41z"/>
	<path d="M350.65,88.62c-0.16-0.74-0.24-1.51-0.24-2.3c0-6.12,4.97-11.11,11.11-11.11h29.82v-7.76h-29.82
		c-10.41,0-18.87,8.47-18.87,18.87c0,2.13,0.37,4.17,1.02,6.08L350.65,88.62z"/>
	<path d="M358.75,175.06c0.01,0.24,0.04,0.48,0.04,0.72c0,12.02-10.24,21.79-22.82,21.79s-22.82-9.78-22.82-21.79
		c0-4.3,1.33-8.3,3.59-11.68l-6.35-3.8c-2.93,4.49-4.66,9.79-4.66,15.49c0,16.09,13.54,29.14,30.24,29.14
		c16.7,0,30.24-13.05,30.24-29.14c0-1.55-0.16-3.06-0.4-4.54L358.75,175.06z"/>
	<path d="M315.45,154.42l6.74,4.03c3.83-2.79,8.6-4.46,13.78-4.46c9.44,0,17.56,5.5,21.03,13.33l6.51-3.52
		c-4.75-10.1-15.28-17.15-27.54-17.15C328.04,146.64,320.84,149.61,315.45,154.42z"/>
	<path d="M534.01,171.43l-7.66-0.07c-1.38-0.04-2.67-0.44-3.81-1.07l-7.46,4.04c2.89,2.91,6.87,4.73,11.27,4.79l7.66,0.1
		c4.13,0.58,7.31,4.14,7.31,8.44v0.9c0,4.71-3.81,8.52-8.52,8.52h-22.35v7.76h22.35c8.99,0,16.28-7.29,16.28-16.28v-0.9
		C549.08,179.09,542.42,172.05,534.01,171.43z"/>
	<path d="M510.34,162.86c0,1.72,0.27,3.37,0.77,4.92l7.1-3.84c-0.05-0.36-0.11-0.71-0.11-1.08c0-4.71,3.81-8.52,8.52-8.52h24.67
		v-7.76h-24.67C517.63,146.58,510.34,153.88,510.34,162.86z"/>
</g>
</svg>
