<?xml version="1.0" encoding="UTF-8"?>
<svg id="Capa_1" data-name="Capa 1" xmlns="http://www.w3.org/2000/svg" viewBox="0 0 515.01 515.01">
  <defs>
    <style>
      .cls-1 {
        stroke-width: 0px;
      }
    </style>
  </defs>
  <path class="cls-1" d="m497.07,10.71C414.92-10.48,328.52,0,253.8,40.18c-16.42,8.83-31.95,18.93-46.48,30.15-41.59-14.83-87.85-4.6-119.34,26.9l-62.95,62.95c-3.93,3.93-3.93,10.3,0,14.23l70.04,70.04s0,0,0,0l9.03,9.03-8.31,61.06c-.42,3.12.63,6.25,2.85,8.47l7.32,7.32-60.09,60.45c-3.92,3.94-3.9,10.31.04,14.22,3.94,3.92,10.31,3.9,14.22-.04l60.05-60.42,50.27,50.27-84.7,84.32c-3.94,3.92-3.95,10.29-.04,14.23,1.97,1.97,4.55,2.96,7.13,2.96s5.13-.98,7.1-2.93l84.73-84.36,7.31,7.31c1.9,1.9,4.46,2.94,7.11,2.94.45,0,.9-.03,1.36-.09l61.06-8.31,9.03,9.03s0,0,0,0l70.04,70.04c1.96,1.96,4.54,2.94,7.11,2.94s5.15-.98,7.12-2.94l62.95-62.95c31.5-31.5,41.74-77.76,26.9-119.34,11.23-14.53,21.32-30.07,30.15-46.48,40.2-74.72,50.66-161.12,29.48-243.27-.92-3.55-3.68-6.31-7.23-7.23ZM98,218.93l-51.63-51.63,55.83-55.83c22.98-22.99,55.5-32.24,86.44-25.59-40.31,36.07-71.47,81.54-90.65,133.05Zm104.69,179.68l-86.29-86.29,5.58-40.96,121.68,121.68-40.96,5.58Zm200.86,14.2l-55.84,55.83-51.63-51.63c51.51-19.17,96.97-50.34,133.05-90.65,6.66,30.94-2.6,63.46-25.58,86.44Zm-122.01-11.95l-1.2.41L113.74,234.67l.41-1.2C166.8,80.46,329.41-8.54,486.26,28.75c37.29,156.85-51.7,319.46-204.72,372.1Z"/>
  <path class="cls-1" d="m392.12,110.57l-132.02,35.37c-3.47.93-6.18,3.64-7.11,7.12-.93,3.47.06,7.17,2.6,9.72l19.61,19.61-39.52,39.52c-3.93,3.93-3.93,10.3,0,14.23,3.93,3.93,10.3,3.93,14.23,0l46.63-46.64c3.93-3.93,3.93-10.29,0-14.22l-14.4-14.4,98.37-26.36-26.36,98.36-14.4-14.4c-1.89-1.89-4.44-2.94-7.11-2.94s-5.23,1.06-7.12,2.94l-80.27,80.27c-3.93,3.93-3.93,10.3,0,14.23,1.96,1.96,4.54,2.94,7.11,2.94s5.15-.98,7.11-2.94l73.15-73.16,19.61,19.61c2.54,2.54,6.25,3.53,9.72,2.6,3.47-.93,6.18-3.64,7.11-7.11l35.37-132.03c.93-3.47-.06-7.17-2.6-9.72-2.54-2.54-6.25-3.54-9.72-2.61Z"/>
  <path class="cls-1" d="m96.55,418.46c-3.93-3.93-10.29-3.93-14.22,0L2.95,497.84c-3.93,3.93-3.93,10.29,0,14.22,1.96,1.96,4.54,2.95,7.11,2.95s5.15-.98,7.11-2.95l79.38-79.38c3.93-3.93,3.93-10.29,0-14.22Z"/>
  <path class="cls-1" d="m25.32,435.62c2.64,0,5.24-1.06,7.11-2.95,1.87-1.87,2.95-4.46,2.95-7.11s-1.08-5.24-2.95-7.11c-1.87-1.87-4.47-2.95-7.11-2.95s-5.24,1.08-7.11,2.95c-1.87,1.87-2.95,4.46-2.95,7.11s1.08,5.24,2.95,7.11c1.87,1.88,4.46,2.95,7.11,2.95Z"/>
  <path class="cls-1" d="m202.61,254.97l-.09.07c-4.14,3.71-4.48,10.07-.77,14.21,1.98,2.21,4.73,3.34,7.49,3.34,2.39,0,4.79-.85,6.72-2.58l.09-.07c4.13-3.71,4.48-10.07.77-14.2-3.71-4.14-10.07-4.48-14.2-.77Z"/>
</svg>