<svg id="Capa_1" enable-background="new 0 0 512 512" height="512" viewBox="0 0 512 512" width="512" xmlns="http://www.w3.org/2000/svg"><g><g id="Page-1_79_"><g id="_x30_80---Stop-Frame-Animation"><path id="Shape_795_" d="m486.4 0h-460.8c-14.138 0-25.6 11.462-25.6 25.6v375.467c0 14.138 11.462 25.6 25.6 25.6h148.326l-17.066 34.133h-28.86c-14.138 0-25.6 11.462-25.6 25.6s11.462 25.6 25.6 25.6h256c14.138 0 25.6-11.461 25.6-25.6s-11.462-25.6-25.6-25.6h-28.86l-17.067-34.133h148.327c14.138 0 25.6-11.462 25.6-25.6v-375.467c0-14.138-11.461-25.6-25.6-25.6zm-460.8 17.067h460.8c4.713 0 8.533 3.821 8.533 8.533v332.8h-477.866v-332.8c0-4.713 3.82-8.533 8.533-8.533zm366.933 469.333c0 4.713-3.82 8.533-8.533 8.533h-256c-4.713 0-8.533-3.82-8.533-8.533s3.821-8.533 8.533-8.533h256c4.713 0 8.533 3.82 8.533 8.533zm-56.473-25.6h-160.12l17.067-34.133h125.986zm150.34-51.2h-460.8c-4.713 0-8.533-3.821-8.533-8.533v-25.6h477.867v25.6c-.001 4.713-3.821 8.533-8.534 8.533z"/><path id="Shape_794_" d="m225.63 185.421c7.198 3.652 15.845 2.901 22.306-1.937l50.108-37.069c5.766-4.365 9.154-11.179 9.154-18.411s-3.388-14.046-9.154-18.411l-50.108-37.06c-6.462-4.836-15.108-5.587-22.306-1.937-7.621 3.896-12.383 11.767-12.297 20.326v74.155c-.093 8.565 4.67 16.445 12.297 20.344zm4.77-94.498c-.108-2.13 1.031-4.128 2.918-5.12.592-.311 1.251-.472 1.92-.469.929.007 1.829.322 2.56.896l50.125 37.086c1.415 1.147 2.237 2.872 2.237 4.693 0 1.822-.822 3.546-2.237 4.693l-50.142 37.111c-1.267 1.028-3.03 1.19-4.463.41-1.888-.992-3.027-2.99-2.918-5.12z"/><path id="Shape_793_" d="m42.069 332.8h.597c4.489.011 8.219-3.458 8.533-7.936.068-.853 6.699-85.931 64-85.931 57.173 0 64 85.086 64 85.939.318 4.475 4.047 7.939 8.533 7.927 4.489.011 8.219-3.458 8.533-7.936.068-.853 6.699-85.931 64-85.931 57.173 0 63.957 85.086 64 85.939.316 4.394 3.925 7.825 8.329 7.919h.205c4.332-.002 7.975-3.249 8.474-7.552.094-.853 9.796-79.061 61.167-85.803 4.598 16.494 20.733 27.005 37.678 24.546s29.426-17.123 29.146-34.244-13.235-31.368-30.251-33.271c-17.017-1.903-32.799 9.13-36.854 25.766-38.665 3.729-58.581 36.292-68.531 63.497-10.505-31.514-32.623-63.863-73.361-63.863-39.697 0-61.713 30.72-72.533 61.44-10.82-30.72-32.836-61.44-72.533-61.44-58.453 0-78.575 66.56-81.067 101.803-.164 2.264.581 4.501 2.07 6.215s3.6 2.763 5.865 2.916zm393.131-119.467c9.426 0 17.067 7.641 17.067 17.067s-7.641 17.067-17.067 17.067-17.067-7.641-17.067-17.067 7.641-17.067 17.067-17.067z"/></g></g></g></svg>