<svg enable-background="new 0 0 520 520" height="512" viewBox="0 0 520 520" width="512" xmlns="http://www.w3.org/2000/svg"><g id="_x32_46_x2C__Architect_x2C__Construction_x2C__Creative_x2C__Design_x2C__Idea"><g><path d="m150.823 203.016 24.656 5.508c1.687 5.605 3.926 11.013 6.699 16.169l-13.54 21.387c-2.502 3.953-1.93 9.112 1.378 12.42l14.487 14.487c3.308 3.309 8.468 3.881 12.42 1.378l21.396-13.546c5.178 2.777 10.581 5.019 16.16 6.702l5.508 24.658c1.021 4.57 5.077 7.82 9.759 7.82h20.508c4.683 0 8.738-3.25 9.76-7.82l5.507-24.655c5.606-1.687 11.013-3.927 16.17-6.699l21.388 13.54c3.95 2.501 9.11 1.93 12.42-1.378l14.486-14.487c3.308-3.308 3.88-8.467 1.378-12.42l-13.547-21.396c2.778-5.177 5.02-10.581 6.702-16.16l24.659-5.508c4.57-1.021 7.82-5.076 7.82-9.759v-20.507c0-4.683-3.25-8.739-7.82-9.759l-24.659-5.508c-1.683-5.579-3.924-10.982-6.702-16.16l13.547-21.396c2.502-3.953 1.93-9.112-1.378-12.42l-14.486-14.487c-3.312-3.311-8.478-3.881-12.431-1.372l-21.379 13.571c-5.129-2.761-10.534-5.006-16.162-6.714l-5.513-24.679c-1.021-4.57-5.077-7.82-9.76-7.82h-20.508c-4.683 0-8.739 3.25-9.759 7.82l-5.513 24.679c-5.629 1.708-11.033 3.953-16.163 6.714l-21.378-13.571c-3.954-2.51-9.12-1.94-12.43 1.371l-14.487 14.486c-3.308 3.308-3.881 8.468-1.378 12.42l13.546 21.396c-2.779 5.178-5.02 10.581-6.702 16.16l-24.659 5.508c-4.57 1.021-7.82 5.077-7.82 9.759v20.507c0 4.684 3.25 8.741 7.82 9.761zm12.18-22.254 22.783-5.089c3.785-.845 6.74-3.804 7.582-7.59 1.695-7.627 4.711-14.906 8.966-21.632 2.066-3.266 2.065-7.43-.002-10.695l-12.515-19.767 3.162-3.162 19.764 12.546c3.279 2.082 7.467 2.077 10.741-.014 6.583-4.203 13.864-7.231 21.643-8.999 3.765-.856 6.701-3.803 7.543-7.571l5.089-22.783h4.482l5.089 22.783c.842 3.768 3.778 6.715 7.544 7.571 7.778 1.768 15.06 4.795 21.642 8.999 3.272 2.09 7.461 2.096 10.741.015l19.765-12.546 3.162 3.162-12.516 19.767c-2.067 3.265-2.067 7.429-.002 10.695 4.255 6.726 7.271 14.003 8.966 21.631.841 3.787 3.796 6.746 7.582 7.591l22.783 5.089v4.482l-22.783 5.089c-3.786.845-6.741 3.804-7.582 7.591-1.695 7.628-4.711 14.905-8.966 21.63-2.065 3.266-2.065 7.43.002 10.695l12.516 19.767-3.169 3.169-19.769-12.515c-3.273-2.072-7.45-2.067-10.718.013-6.647 4.23-13.918 7.242-21.608 8.952-3.786.841-6.744 3.796-7.59 7.582l-5.089 22.782h-4.482l-5.089-22.782c-.845-3.786-3.803-6.741-7.59-7.582-7.628-1.695-14.906-4.712-21.632-8.966-3.266-2.066-7.43-2.064-10.695.002l-19.767 12.515-3.169-3.169 12.515-19.767c2.072-3.273 2.067-7.449-.013-10.718-4.23-6.648-7.242-13.918-8.951-21.608-.841-3.787-3.796-6.745-7.582-7.59l-22.783-5.089z"/><path d="m260.033 223.533c22.33 0 40.497-18.167 40.497-40.497 0-22.367-18.167-40.564-40.497-40.564-22.367 0-40.563 18.197-40.563 40.564 0 22.331 18.197 40.497 40.563 40.497zm0-61.06c11.302 0 20.497 9.225 20.497 20.564 0 11.302-9.195 20.497-20.497 20.497-11.339 0-20.563-9.195-20.563-20.497 0-11.339 9.224-20.564 20.563-20.564z"/><path d="m192.477 332.21v28.021c-12.229 1.645-21.692 12.141-21.692 24.813 0 9.072 4.85 17.032 12.092 21.427-6.016 16.267 6.069 33.703 23.498 33.703h9.801c-3.192 15.557 8.747 30.088 24.534 30.088h38.582c15.803 0 27.726-14.551 24.532-30.088h9.802c17.43 0 29.513-17.434 23.499-33.704 7.241-4.394 12.091-12.354 12.091-21.426 0-12.673-9.463-23.169-21.691-24.813v-28.021c56.986-25.859 95.872-83.133 95.872-148.815-.001-90.29-73.087-163.395-163.373-163.395-89.444 0-162.752 72.744-163.415 162.158-.489 65.988 38.319 123.943 95.868 150.052zm91.857 113.008c0 2.781-2.263 5.044-5.043 5.044h-38.582c-2.781 0-5.044-2.263-5.044-5.044s2.263-5.044 5.044-5.044h38.582c2.78 0 5.043 2.263 5.043 5.044zm29.291-25.044c-31.873 0-74.938 0-107.25 0-2.781 0-5.043-2.263-5.043-5.043 0-2.781 2.263-5.044 5.043-5.044h107.25c2.781 0 5.044 2.263 5.044 5.044 0 2.78-2.263 5.043-5.044 5.043zm15.59-35.13c0 2.78-2.263 5.043-5.043 5.043-24.086 0-104.086 0-128.343 0-2.781 0-5.044-2.263-5.044-5.043 0-2.781 2.263-5.044 5.044-5.044h128.343c2.78 0 5.043 2.263 5.043 5.044zm-67.344-345.032c78.037.997 141.524 65.318 141.524 143.383 0 58.727-35.18 110.916-89.625 132.957-3.775 1.529-6.247 5.195-6.247 9.27v34.378h-17.523v-30c0-5.522-4.478-10-10-10s-10 4.478-10 10v30h-20v-30c0-5.522-4.477-10-10-10s-10 4.478-10 10v30h-17.523v-34.379c0-4.074-2.471-7.74-6.248-9.27-54.881-22.218-90.06-74.833-89.62-134.045.586-79.08 65.908-143.31 145.262-142.294z"/><path d="m430 480h-340c-5.523 0-10 4.478-10 10s4.477 10 10 10h340c5.522 0 10-4.478 10-10s-4.478-10-10-10z"/><path d="m400 40h40v20h-40z"/><path d="m450 40h20v20h-20z"/><path d="m50 330h40v20h-40z"/><path d="m100 330h20v20h-20z"/><circle cx="450" cy="120" r="10"/><circle cx="460" cy="300" r="10"/><circle cx="370" cy="440" r="10"/><circle cx="460" cy="490" r="10"/><circle cx="140" cy="380" r="10"/><circle cx="70" cy="260" r="10"/><circle cx="120" cy="40" r="10"/><path d="m100 80c0-16.542-13.458-30-30-30s-30 13.458-30 30 13.458 30 30 30 30-13.458 30-30zm-40 0c0-5.514 4.486-10 10-10s10 4.486 10 10-4.486 10-10 10-10-4.486-10-10z"/><path d="m415 330c-19.299 0-35 15.701-35 35s15.701 35 35 35 35-15.701 35-35-15.701-35-35-35zm0 50c-8.271 0-15-6.729-15-15s6.729-15 15-15 15 6.729 15 15-6.729 15-15 15z"/><path d="m110 435c0-13.785-11.215-25-25-25s-25 11.215-25 25 11.215 25 25 25 25-11.215 25-25zm-30 0c0-2.757 2.243-5 5-5s5 2.243 5 5-2.243 5-5 5-5-2.243-5-5z"/></g></g></svg>