<svg id="Capa_1" enable-background="new 0 0 512 512" height="512" viewBox="0 0 512 512" width="512" xmlns="http://www.w3.org/2000/svg"><g><path d="m419.146 55.094c-43.267-35.528-101.202-55.094-163.131-55.094-41.588 0-82.212 9.014-117.481 26.067-34.718 16.787-63.575 40.976-83.454 69.95-2.343 3.416-1.474 8.084 1.941 10.428 3.415 2.343 8.083 1.473 10.428-1.941 18.404-26.826 45.243-49.278 77.614-64.931 27.189-13.147 57.804-21.217 89.575-23.724l-21.266 18.104c-43.608 37.122-70.719 89.679-75.972 146.242-13.215-12.456-30.75-19.564-49.395-19.564-17.717 0-34.719 6.592-47.784 18.127 1.026-16.521 6.681-32.047 11.724-47.646 0-4.143-3.357-7.495-7.5-7.495-3.188 0-5.912 1.992-6.997 4.8-8.616 20.779-12.956 42.764-12.902 65.305 0 4.129 2.641 7.76 6.57 9.033 3.918 1.272 8.177-.116 10.596-3.456 10.724-14.819 28.029-23.667 46.294-23.667 19.461 0 37.402 9.776 47.97 26.118 1.751 2.739 4.734 4.376 7.982 4.377h.003c3.247 0 6.231-1.635 7.963-4.343 10.589-16.376 28.53-26.152 47.992-26.152 19.719 0 38.152 10.306 48.541 27.014l-.008 27.466h-18.897c-5.238 0-9.5 4.262-9.5 9.5v23.468c-6.905-1.183-13.999-1.808-21.236-1.808-69.129 0-125.37 56.241-125.37 125.37 0 69.122 56.239 125.357 125.365 125.36h.001 218.453c5.238 0 9.5-4.262 9.5-9.5v-38.586c0-6.341-5.159-11.5-11.5-11.5h-18.179v-29.587h3.723c6.341 0 11.5-5.159 11.5-11.5v-33.086h4.492c5.238 0 9.5-4.262 9.5-9.5v-40.377c0-5.238-4.262-9.5-9.5-9.5h-4.955v-29.378h2.955c6.341 0 11.5-5.159 11.5-11.5v-38.377c0-5.238-4.262-9.5-9.5-9.5h-153.353l.009-27.727c10.419-16.55 28.775-26.752 48.379-26.752 19.471 0 37.411 9.775 47.995 26.157 1.76 2.718 4.735 4.338 7.963 4.338h.027c3.233-.01 6.207-1.645 7.933-4.343 10.589-16.376 28.534-26.152 48.002-26.152 18.38 0 35.752 8.943 46.473 23.929 2.374 3.313 6.588 4.749 10.489 3.577 3.879-1.168 6.585-4.677 6.733-8.741.428-53.359-23.969-102.872-68.305-139.303zm-128.758 270.011-19.29 11.137c-14.601-20.883-38.007-35.173-64.787-37.439v-22.273c34.981 2.358 65.548 21.086 84.077 48.575zm120.912 8.759v29.377h-89.324c-1.95-10.289-5.161-20.137-9.467-29.377zm-204.99 140.604c26.781-2.266 50.186-16.554 64.787-37.436l19.29 11.137c-18.529 27.487-49.095 46.213-84.077 48.571zm91.594-39.279-19.286-11.134c5.349-11.364 8.346-24.045 8.346-37.415 0-13.371-2.998-26.054-8.347-37.419l19.286-11.135c7.212 14.661 11.271 31.141 11.271 48.554.001 17.41-4.058 33.889-11.27 48.549zm-106.594-158.659v22.276c-26.463 2.264-50.057 16.389-64.792 37.433l-19.285-11.134c18.529-27.488 49.095-46.215 84.077-48.575zm-91.594 61.555 19.281 11.132c-2.959 6.293-5.218 13.002-6.627 20.054-.812 4.062 1.823 8.013 5.885 8.824 4.062.815 8.013-1.823 8.824-5.885 6.801-34.03 36.97-58.729 71.735-58.729 40.335 0 73.15 32.819 73.15 73.159 0 40.335-32.815 73.15-73.15 73.15-33.886 0-63.116-22.952-71.081-55.816-.976-4.025-5.023-6.498-9.056-5.522-4.025.976-6.498 5.03-5.522 9.056 1.405 5.798 3.374 11.33 5.814 16.567l-19.253 11.115c-7.212-14.66-11.272-31.138-11.272-48.55 0-17.413 4.06-33.894 11.272-48.555zm7.517 110.084 19.207-11.089c14.707 21.161 38.275 35.163 64.871 37.394v22.265c-34.982-2.36-65.549-21.085-84.078-48.57zm304.531 48.831h-153.533c13.909-7.519 26.24-17.593 36.369-29.586h117.164zm-106.276-44.586c5.663-9.151 10.18-19.079 13.354-29.587h63.243v29.587zm91.82-44.587c-2.124 0-70.734 0-74.932 0 1.178-6.89 1.8-13.967 1.8-21.188 0-2.823-.103-5.622-.288-8.398h73.421v29.586zm13.992-133.341-43.525.004c-4.143 0-7.5 3.357-7.5 7.5s3.357 7.5 7.5 7.5h29.07v29.374h-92.612c-7.173-11.119-16.056-21.033-26.273-29.374h54.815c4.143 0 7.5-3.357 7.5-7.5s-3.357-7.5-7.5-7.5h-77.974c-6.301-3.159-12.902-5.802-19.75-7.873v-21.508h176.249zm-211.385-113.856c-17.639 0-34.285 6.363-47.226 17.607 5.633-51.404 30.652-99.021 70.406-132.863l25.415-21.637-.047 155.726c-13.117-11.915-30.399-18.833-48.548-18.833zm223.84 0c-18.644 0-36.176 7.102-49.399 19.564-3.376-36.535-15.835-71.56-36.483-102.177-2.314-3.434-6.976-4.34-10.411-2.024-3.435 2.315-4.341 6.977-2.024 10.411 18.605 27.588 30.073 59.016 33.65 91.844-12.936-11.248-29.594-17.618-47.253-17.618-18.058 0-35.273 6.858-48.372 18.677l.047-155.548 25.217 21.517c5.452 4.652 10.679 9.609 15.535 14.733 1.475 1.556 3.458 2.341 5.444 2.341 1.853 0 3.708-.682 5.158-2.057 3.007-2.85 3.134-7.597.284-10.603-5.219-5.507-10.832-10.831-16.686-15.825l-21.142-18.04c50.326 3.904 96.692 21.616 132.307 50.862 36.516 29.984 58.252 69.445 62.202 112.336-13.101-11.705-30.209-18.393-48.074-18.393z"/><path d="m176.006 423.255c5.806 3.798 10.075 5.322 15.305 5.868v5.412c0 4.143 3.357 7.5 7.5 7.5s7.5-3.357 7.5-7.5v-6.34c10.271-3.181 16.841-12.209 18.339-21.118 2.017-11.997-4.49-22.836-16.191-26.973-1.654-.585-3.24-1.115-4.753-1.621-5.427-1.813-9.713-3.246-11.664-5.495-2.136-2.46-2.89-5.497-2.069-8.331.427-1.478 1.681-4.117 5.275-5.2 6.979-2.107 11.282 2.182 11.75 2.678 2.844 3.012 7.591 3.146 10.603.304 3.012-2.844 3.147-7.591.304-10.603-2.637-2.793-6.665-5.472-11.593-6.894v-6.203c0-4.143-3.357-7.5-7.5-7.5s-7.5 3.357-7.5 7.5v6.254c-.131.037-.259.062-.391.101-7.479 2.253-13.221 8.008-15.357 15.393-2.229 7.702-.303 16.051 5.149 22.332 4.638 5.345 10.94 7.451 18.238 9.891 1.435.479 2.939.982 4.509 1.537 6.932 2.45 6.783 8.05 6.397 10.343-.788 4.69-4.734 9.759-11.533 9.804-6.895.049-8.872-.268-14.106-3.691-3.467-2.267-8.115-1.296-10.382 2.171-2.269 3.466-1.297 8.113 2.17 10.381z"/></g></svg>