<svg id="Capa_1" enable-background="new 0 0 64 64" height="512" viewBox="0 0 64 64" width="512" xmlns="http://www.w3.org/2000/svg"><path d="m10.72 31.76c-.42-.36-.48-.99-.12-1.41 3.29-3.91 9.19-6.35 15.4-6.35.55 0 1 .45 1 1s-.45 1-1 1c-5.63 0-10.95 2.16-13.88 5.64-.2.24-.48.36-.77.36-.22 0-.45-.08-.63-.24zm28.28-21.76c-6.21 0-12.11 2.44-15.41 6.35-.35.42-.3 1.05.12 1.41.19.16.42.24.65.24.29 0 .57-.12.77-.36 2.92-3.48 8.24-5.64 13.87-5.64.55 0 1-.45 1-1s-.45-1-1-1zm-29 27c0-.55-.45-1-1-1s-1 .45-1 1c0 3.32 1.77 6.49 4.98 8.94.18.14.39.2.6.2.3 0 .6-.14.8-.39.33-.44.25-1.07-.19-1.4-2.7-2.06-4.19-4.67-4.19-7.35zm46.97 5.76c.1.38-.04.79-.36 1.03-.18.14-.39.21-.61.21-.16 0-.33-.04-.47-.12l-7.8-4.2c-1.67 8.1-10.78 14.32-21.73 14.32-2.52 0-5.02-.34-7.44-1.01l-9.09 4.89c-.14.08-.31.12-.47.12-.22 0-.43-.07-.61-.21-.31-.24-.45-.65-.36-1.03l2.01-8.05c-3.9-3.17-6.04-7.3-6.04-11.71 0-6.93 5.4-12.91 13.12-15.55 1.02-8.71 10.45-15.45 21.88-15.45 12.13 0 22 7.63 22 17 0 4.4-2.14 8.54-6.04 11.72zm-10.97-5.76c0-8.27-8.97-15-20-15-2.7 0-5.28.41-7.63 1.14-.01 0-.03.01-.04.01-7.23 2.26-12.33 7.62-12.33 13.85 0 3.96 2.05 7.7 5.77 10.53.32.24.46.65.37 1.04l-1.62 6.48 7.45-4.01c.23-.13.5-.15.76-.08 2.35.69 4.8 1.04 7.27 1.04 11.03 0 20-6.73 20-15zm7.22-3.47c3.73-2.83 5.78-6.57 5.78-10.53 0-8.27-8.97-15-20-15-10.03 0-18.38 5.53-19.79 12.83 2.14-.54 4.42-.83 6.79-.83 12.13 0 22 7.63 22 17 0 .18-.01.36-.02.54l6.5 3.5-1.62-6.47c-.1-.39.05-.79.36-1.04zm-19.22-3.53h-16c-.55 0-1 .45-1 1s.45 1 1 1h16c.55 0 1-.45 1-1s-.45-1-1-1zm0 4h-16c-.55 0-1 .45-1 1s.45 1 1 1h16c.55 0 1-.45 1-1s-.45-1-1-1zm0 4h-16c-.55 0-1 .45-1 1s.45 1 1 1h16c.55 0 1-.45 1-1s-.45-1-1-1zm0 4h-16c-.55 0-1 .45-1 1s.45 1 1 1h16c.55 0 1-.45 1-1s-.45-1-1-1z" fill="rgb(0,0,0)"/></svg>