<svg id="Layer_1" height="512" viewBox="0 0 34 34" width="512" xmlns="http://www.w3.org/2000/svg"><g><path d="m28 15.999v-2.999c0-.553-.447-1-1-1s-1 .447-1 1v2.999c0 4.963-4.037 9-9 9s-9-4.037-9-9v-2.999c0-.553-.447-1-1-1s-1 .447-1 1v2.999c0 5.728 4.402 10.442 10 10.949v4.052h-6c-.553 0-1 .447-1 1s.447 1 1 1h14c.553 0 1-.447 1-1s-.447-1-1-1h-6v-4.052c5.598-.507 10-5.221 10-10.949z"/><path d="m17 22c3.309 0 6-2.691 6-6v-9c0-3.309-2.691-6-6-6s-6 2.691-6 6v9c0 3.309 2.691 6 6 6zm-4-15c0-2.206 1.794-4 4-4s4 1.794 4 4v9c0 2.206-1.794 4-4 4s-4-1.794-4-4z"/></g></svg>