<svg id="Capa_1" enable-background="new 0 0 480.009 480.009" height="512" viewBox="0 0 480.009 480.009" width="512" xmlns="http://www.w3.org/2000/svg"><g><path id="Send_1_" d="m475.317 4.697c-4.5-4.516-11.244-5.92-17.164-3.58l-448 176c-6.06 2.376-10.076 8.204-10.148 14.736-.064 6.516 3.828 12.42 9.844 14.92l114.088 47.536-27.456 109.824c-1.36 5.452.236 11.22 4.212 15.188 3.04 3.032 7.124 4.688 11.312 4.688 1.288 0 2.592-.156 3.884-.484l109.812-27.452 47.54 114.092c2.484 5.968 8.312 9.844 14.764 9.844h.164c6.516-.064 12.344-4.08 14.728-10.156l176-448c2.328-5.924.92-12.656-3.58-17.156zm-76.888 54.264-194.16 194.16-145.616-60.676zm-264.432 287.064 19.812-79.264 41.96 17.484 17.488 41.968zm153.572 75.344-60.676-145.624 194.16-194.16z"/></g></svg>