<svg id="Image" height="512" viewBox="0 0 30 30" width="512" xmlns="http://www.w3.org/2000/svg"><g><path d="m15 8c.338 0 .68.025 1.018.074.644.103.806-.893.144-.989-.386-.057-.777-.085-1.162-.085-4.411 0-8 3.589-8 8 0 4.419 3.58 8 8 8 4.411 0 8-3.589 8-8 0-.385-.028-.775-.084-1.161-.098-.667-1.084-.503-.989.144.048.338.073.68.073 1.017 0 3.86-3.14 7-7 7-3.866 0-7-3.132-7-7 0-3.86 3.14-7 7-7z"/><path d="m27.598 13.01-2.39-.476c-.053-.22-.112-.436-.178-.648-.197-.629-1.152-.335-.955.298.089.285.165.577.226.876.04.198.195.352.392.391l2.307.459v2.18l-2.308.461c-.197.039-.351.192-.392.389-.243 1.171-.7 2.27-1.357 3.266-.111.168-.11.386.002.554l1.312 1.958-1.539 1.539-1.958-1.312c-.169-.112-.387-.113-.554-.001-.994.656-2.093 1.113-3.267 1.358-.196.041-.349.195-.388.392l-.461 2.306h-2.18l-.46-2.307c-.039-.197-.192-.351-.388-.392-1.174-.245-2.273-.702-3.267-1.358-.168-.111-.386-.111-.554.001l-1.958 1.312-1.539-1.539 1.312-1.958c.112-.167.113-.386.002-.554-.658-.995-1.115-2.094-1.359-3.267-.041-.196-.195-.349-.392-.388l-2.307-.46v-2.18l2.308-.46c.197-.039.351-.192.392-.388.243-1.173.7-2.272 1.357-3.267.111-.168.11-.386-.002-.554l-1.311-1.958 1.539-1.539 1.958 1.312c.167.111.385.113.554.002.996-.658 2.095-1.115 3.266-1.358.197-.041.35-.195.389-.392l.46-2.308h2.18l.46 2.308c.039.197.193.352.39.392.299.061.591.137.877.226.635.196.926-.759.297-.955-.213-.066-.429-.125-.647-.178l-.477-2.39c-.047-.235-.252-.403-.49-.403h-3c-.238 0-.444.168-.49.402l-.477 2.391c-1.066.257-2.075.676-3.006 1.249l-2.029-1.358c-.198-.131-.462-.107-.632.062l-2.12 2.12c-.169.169-.195.434-.062.632l1.358 2.028c-.573.931-.992 1.94-1.25 3.007l-2.39.477c-.234.046-.402.252-.402.49v3c0 .238.168.444.402.49l2.391.477c.257 1.067.676 2.076 1.25 3.007l-1.358 2.028c-.133.198-.107.463.062.632l2.12 2.12c.169.168.433.194.632.062l2.028-1.358c.93.573 1.939.992 3.007 1.25l.477 2.39c.045.234.251.402.489.402h3c.238 0 .444-.168.49-.402l.477-2.39c1.068-.258 2.077-.677 3.007-1.25l2.028 1.358c.199.133.463.107.632-.062l2.12-2.12c.169-.169.195-.434.062-.632l-1.358-2.028c.573-.931.992-1.94 1.249-3.006l2.391-.478c.234-.046.402-.252.402-.49v-3c0-.239-.168-.444-.402-.49z"/><path d="m13.034 12.327c-.002.005-.007.009-.009.014l-2 6c-.131.391.242.762.632.633l6.001-1.999c.006-.002.01-.007.016-.01.068-.025.13-.062.18-.112l9.999-9.999c.095-.093.147-.22.147-.353 0-2.482-2.019-4.501-4.5-4.501-.133 0-.26.053-.354.146l-9.999 9.999c-.051.051-.087.114-.113.182zm3.931 3.825-2.064.687c-.233-.925-.877-1.536-1.73-1.775l.677-2.03c1.649.167 2.951 1.469 3.117 3.118zm-4.108-.143c.59.143.99.592 1.1 1.146l-1.667.555zm10.844-13.003c1.771.101 3.193 1.523 3.294 3.294l-9.135 9.135c-.398-1.623-1.671-2.896-3.294-3.294z"/></g></svg>