<svg id="Capa_1" enable-background="new 0 0 512 512" height="512" viewBox="0 0 512 512" width="512" xmlns="http://www.w3.org/2000/svg"><g id="XMLID_1443_"><g id="XMLID_1313_"><path id="XMLID_1323_" d="m314.273 274.431c-18.185-18.28-43.403-28.765-69.188-28.765-18.321 0-36.501 5.345-51.933 15.166-15.432-9.821-33.612-15.166-51.934-15.166-25.785 0-51.003 10.484-69.188 28.765l-69.119 69.481c-3.414 3.431-3.88 8.814-1.107 12.781l39.118 55.974c34.716 49.676 91.625 79.333 152.23 79.333s117.514-29.657 152.23-79.333l39.118-55.974c2.772-3.967 2.306-9.35-1.107-12.781zm-228.064 14.106c14.459-14.534 34.509-22.87 55.009-22.87 16.456 0 32.769 5.439 45.933 15.314 3.555 2.667 8.446 2.668 12.002 0 13.164-9.875 29.476-15.314 45.932-15.314 20.501 0 40.551 8.336 55.009 22.87l52.156 52.428h-48.54c-29.743.001-58.203 7.768-82.303 22.461-8.486 5.174-18.256 7.908-28.255 7.908s-19.77-2.734-28.255-7.908c-24.102-14.694-52.561-22.461-82.303-22.461h-48.54zm242.78 112.673c-30.978 44.327-81.759 70.79-135.837 70.79s-104.859-26.463-135.837-70.79l-28.126-40.245h53.405c26.068 0 50.928 6.756 71.892 19.537 11.622 7.086 24.993 10.832 38.666 10.832 13.672 0 27.043-3.746 38.666-10.832 20.963-12.781 45.823-19.537 71.892-19.537h53.405z"/><path id="XMLID_1326_" d="m410 20h-22.833c-5.523 0-10 4.477-10 10s4.477 10 10 10h22.833c45.215 0 82 36.785 82 82s-36.785 82-82 82h-1.666c-3.573 0-6.874 1.906-8.66 5l-19.053 33-19.053-33c-1.786-3.094-5.087-5-8.66-5h-78.574c-45.215 0-82-36.785-82-82s36.785-82 82-82h22.834c5.523 0 10-4.477 10-10s-4.477-10-10-10h-22.834c-56.243 0-102 45.757-102 102s45.757 102 102 102h72.801l24.826 43c1.786 3.094 5.087 5 8.66 5s6.874-1.906 8.66-5l24.874-43.084c54.327-2.184 97.845-47.063 97.845-101.916 0-56.243-45.757-102-102-102z"/><path id="XMLID_1327_" d="m286.76 114.93c-1.86 1.86-2.93 4.44-2.93 7.07s1.07 5.21 2.93 7.07 4.44 2.93 7.07 2.93c2.64 0 5.21-1.07 7.07-2.93 1.87-1.86 2.93-4.44 2.93-7.07s-1.06-5.21-2.93-7.07c-1.86-1.86-4.43-2.93-7.07-2.93-2.63 0-5.21 1.07-7.07 2.93z"/><path id="XMLID_1328_" d="m342.17 132c2.63 0 5.21-1.07 7.07-2.93s2.93-4.44 2.93-7.07-1.07-5.21-2.93-7.07-4.44-2.93-7.07-2.93c-2.64 0-5.21 1.07-7.08 2.93-1.86 1.86-2.92 4.44-2.92 7.07s1.06 5.21 2.92 7.07c1.87 1.86 4.44 2.93 7.08 2.93z"/><path id="XMLID_1329_" d="m390.5 132c2.63 0 5.21-1.07 7.07-2.93s2.93-4.44 2.93-7.07-1.07-5.21-2.93-7.07-4.44-2.93-7.07-2.93-5.21 1.07-7.07 2.93-2.93 4.44-2.93 7.07 1.07 5.21 2.93 7.07 4.44 2.93 7.07 2.93z"/><path id="XMLID_1335_" d="m342.17 40c2.63 0 5.21-1.07 7.07-2.93s2.93-4.44 2.93-7.07-1.07-5.21-2.93-7.07-4.44-2.93-7.07-2.93c-2.64 0-5.21 1.07-7.08 2.93-1.86 1.86-2.92 4.44-2.92 7.07s1.06 5.21 2.92 7.07c1.87 1.86 4.44 2.93 7.08 2.93z"/></g></g></svg>