<svg id="Capa_1" enable-background="new 0 0 512 512" height="512" viewBox="0 0 512 512" width="512" xmlns="http://www.w3.org/2000/svg"><g><g><g><path d="m51.729 255.308c-10.807 23.646-.361 51.676 23.285 62.483 6.25 2.857 12.902 4.292 19.575 4.292 5.556 0 11.127-.995 16.489-2.994 11.802-4.398 21.184-13.129 26.419-24.584 5.235-11.454 5.696-24.262 1.298-36.063s-13.129-21.183-24.583-26.418c-23.646-10.807-51.676-.361-62.483 23.284zm56.247-9.64c7.81 3.569 13.763 9.966 16.761 18.013 2.999 8.046 2.685 16.779-.885 24.589-3.569 7.81-9.966 13.763-18.013 16.761-8.046 2.999-16.779 2.684-24.588-.885-16.123-7.368-23.245-26.48-15.877-42.603 3.569-7.81 9.966-13.762 18.013-16.761 3.656-1.362 7.453-2.041 11.242-2.041 4.549 0 9.086.979 13.347 2.927z"/><path d="m121.854 372.869c-10.807 23.646-.361 51.676 23.285 62.483 6.335 2.895 12.98 4.264 19.528 4.264 17.896 0 35.043-10.238 42.955-27.55 10.807-23.645.361-51.675-23.285-62.482-23.647-10.806-51.676-.362-62.483 23.285zm13.645 6.235c3.569-7.81 9.966-13.762 18.013-16.76 3.656-1.363 7.453-2.041 11.242-2.041 4.549 0 9.086.979 13.347 2.926 16.123 7.368 23.244 26.479 15.877 42.602-7.369 16.122-26.481 23.242-42.601 15.876-16.124-7.369-23.246-26.48-15.878-42.603z"/><path d="m320.718 369.496c-23.645-10.806-51.676-.361-62.483 23.285-10.806 23.646-.36 51.676 23.286 62.483 6.334 2.895 12.98 4.264 19.527 4.264 17.895 0 35.043-10.238 42.954-27.55 10.808-23.647.363-51.676-23.284-62.482zm9.641 56.246c-7.369 16.124-26.479 23.244-42.602 15.876-16.122-7.368-23.244-26.48-15.877-42.602 5.394-11.804 17.084-18.783 29.287-18.783 4.464 0 8.997.935 13.316 2.908 16.122 7.368 23.244 26.479 15.876 42.601z"/><path d="m374.039 349.723c6.334 2.895 12.98 4.264 19.529 4.264 17.895 0 35.042-10.237 42.954-27.549 10.807-23.646.361-51.675-23.285-62.483-23.644-10.805-51.675-.361-62.483 23.285-10.806 23.647-.361 51.676 23.285 62.483zm-9.64-56.247c5.395-11.804 17.085-18.783 29.287-18.783 4.465 0 8.998.935 13.316 2.908 16.122 7.368 23.244 26.48 15.876 42.602-7.369 16.123-26.483 23.242-42.603 15.876-16.122-7.369-23.244-26.48-15.876-42.603z"/><path d="m201.83 176.945c10.807-23.646.361-51.676-23.285-62.482-23.647-10.806-51.676-.361-62.483 23.286-10.806 23.645-.361 51.675 23.285 62.482 6.335 2.895 12.981 4.264 19.529 4.264 17.896-.001 35.042-10.238 42.954-27.55zm-13.645-6.236c-7.368 16.122-26.48 23.242-42.602 15.876-16.122-7.368-23.244-26.479-15.877-42.601 5.395-11.805 17.085-18.784 29.287-18.784 4.464 0 8.997.935 13.315 2.908 16.123 7.367 23.245 26.479 15.877 42.601z"/><path d="m460.375 67.641c-2.711 3.132-2.37 7.869.763 10.581 3.134 2.711 7.87 2.372 10.581-.763l29.106-33.63c9.424-10.887 8.352-27.548-2.391-37.139-10.744-9.591-27.417-8.771-37.172 1.823l-110.724 120.7c-7.957-8.427-13.737-19.036-16.536-33.862-1.272-6.732-1.759-14.068-2.275-21.834-1.536-23.107-3.277-49.298-28.008-63.8-24.946-14.626-57.154-12.585-98.464 6.235-79.828 36.372-150.843 103.856-180.917 171.923-.771 1.746-1.531 3.526-2.257 5.29-1.577 3.831.25 8.214 4.081 9.792 3.834 1.578 8.215-.251 9.792-4.082.677-1.646 1.386-3.307 2.106-4.936 14.641-33.138 39.625-66.536 72.251-96.583 30.015-27.642 65.942-51.703 101.164-67.751 36.54-16.647 64.231-18.921 84.655-6.946 17.878 10.483 19.214 30.578 20.627 51.854.524 7.867 1.065 16.002 2.502 23.623 3.529 18.693 11.124 31.905 21.111 42.161l-62.412 68.035c-2.882-.491-5.818-.798-8.802-.897-15.523-.499-29.752 4.559-38.955 13.906-7.042 7.152-11.689 14.041-16.042 23.783-3.353 7.504-5.968 15.232-9.782 22.658-3.719 7.241-10.947 12.751-18.204 17.627-5.164 3.469-5.949 7.913-5.957 10.253-.018 4.966 3.128 9.744 9.099 13.816 2.757 1.881 5.943 3.585 9.742 5.208 12.518 5.344 26.354 8.066 40.703 8.066 5.522 0 11.12-.403 16.748-1.215 11.042-1.592 21.121-4.521 29.956-8.705 18.03-8.538 32.077-25.617 35.789-43.512 1.337-6.447 1.202-13.146-.217-19.665l67.792-77.929c4.968 2.501 10.034 5.09 15.084 7.871 14.266 7.855 26.561 17.89 36.544 29.824 21.497 25.705 27.143 56.688 28.095 78.152 1.523 34.357-7.844 69.655-27.086 102.075-18.352 30.921-44.347 57.361-75.176 76.459-60.75 37.636-147.734 41.242-221.601 9.185-33.192-14.405-62.42-37.993-84.525-68.218-21.98-30.055-35.806-65.11-39.983-101.378-2.893-25.117-1.378-50.348 4.502-74.992.961-4.029-1.526-8.075-5.556-9.037-4.028-.959-8.076 1.525-9.038 5.556-6.287 26.35-7.906 53.33-4.813 80.19 4.474 38.845 19.266 76.37 42.778 108.518 23.677 32.373 55.027 57.659 90.661 73.123 35.382 15.355 73.654 22.948 110.971 22.947 45.205-.002 89.004-11.148 124.504-33.14 32.872-20.367 60.596-48.567 80.176-81.556 20.737-34.939 30.824-73.114 29.172-110.396-1.511-34.097-12.429-64.22-31.574-87.113-11.181-13.367-24.913-24.586-40.816-33.342-4.104-2.259-8.164-4.366-12.166-6.401l49.098-56.439c2.711-3.132 2.369-7.869-.763-10.581-3.13-2.71-7.867-2.37-10.581.763l-101.091 116.792-22.504-20.087 158.16-171.826c4.236-4.6 11.479-4.957 16.143-.793 4.666 4.165 5.132 11.4 1.038 16.13zm-152.812 198.63c-2.789 13.451-13.592 26.405-27.52 33-7.48 3.542-16.119 6.037-25.676 7.416-17.527 2.528-34.613.521-49.416-5.799-2.89-1.236-5.239-2.48-7.181-3.804-.378-.259-.713-.506-1.006-.738 8.168-5.661 16.125-12.298 20.96-21.712 3.882-7.559 6.69-15.688 10.133-23.391 3.615-8.087 7.269-13.521 13.035-19.377 6.272-6.37 16.408-9.805 27.772-9.437 10.515.341 20.397 3.664 28.018 11.176 9.042 8.914 13.211 21.432 10.881 32.666zm19.176-44.414-10.867 12.174c-2.363-3.997-5.251-7.752-8.657-11.11 0 0-.001 0-.001-.001-4.017-3.959-8.645-7.237-13.553-9.65l10.403-11.655z"/></g></g></g></svg>