<svg id="Capa_1" enable-background="new 0 0 512 512" height="512" viewBox="0 0 512 512" width="512" xmlns="http://www.w3.org/2000/svg"><g><circle cx="338.833" cy="173.833" r="7.5"/><circle cx="368.833" cy="173.833" r="7.5"/><circle cx="308.833" cy="173.833" r="7.5"/><path d="m173.167 225.667c-62.401 0-113.167 50.766-113.167 113.166s50.766 113.167 113.167 113.167 113.167-50.766 113.167-113.167-50.767-113.166-113.167-113.166zm-36.072 21.866c-8.872 12.238-15.818 28.978-19.963 48.579h-32.337c10.697-22.038 29.397-39.499 52.3-48.579zm-62.095 91.3c0-9.624 1.399-18.927 3.992-27.722h35.597c-1.146 8.844-1.756 18.125-1.756 27.722s.61 18.878 1.756 27.722h-35.597c-2.593-8.795-3.992-18.097-3.992-27.722zm9.795 42.723h32.337c4.145 19.6 11.091 36.341 19.963 48.579-22.903-9.081-41.603-26.542-52.3-48.579zm80.872 53.934c-13.542-5.387-26.588-24.948-33.249-53.935h33.249zm0-68.934h-35.983c-1.192-8.641-1.85-17.911-1.85-27.722s.657-19.081 1.85-27.722h35.983zm0-70.445h-33.249c6.661-28.987 19.707-48.548 33.249-53.935zm15-53.935c13.542 5.387 26.588 24.948 33.249 53.935h-33.249zm0 68.935h35.984c1.192 8.641 1.85 17.911 1.85 27.722s-.657 19.081-1.85 27.722h-35.984zm0 124.38v-53.935h33.249c-6.661 28.986-19.707 48.548-33.249 53.935zm28.571-5.357c8.872-12.238 15.818-28.978 19.963-48.578h32.337c-10.697 22.037-29.397 39.497-52.3 48.578zm62.095-91.301c0 9.624-1.399 18.927-3.992 27.722h-35.597c1.146-8.844 1.756-18.125 1.756-27.722s-.61-18.878-1.756-27.722h35.597c2.593 8.796 3.992 18.098 3.992 27.722zm-42.132-42.722c-4.145-19.6-11.091-36.341-19.963-48.578 22.903 9.081 41.603 26.541 52.3 48.578z"/><path d="m507.314 326.06c-17.447-7.063-31.485-20.707-39.09-37.819 28.266-31.746 43.776-72.419 43.776-115.074 0-95.484-77.682-173.167-173.167-173.167-83.681 0-155.317 59.658-170.334 141.853-.745 4.075 1.955 7.981 6.03 8.726 4.073.742 7.981-1.955 8.726-6.03 13.715-75.066 79.145-129.549 155.578-129.549 87.214 0 158.167 70.954 158.167 158.167 0 40.438-15.26 78.924-42.97 108.368-1.953 2.076-2.561 5.08-1.569 7.751 6.251 16.832 17.537 31.239 32.053 41.363-3.298.455-6.64.684-10.014.684-18.324 0-35.817-6.857-49.256-19.309-2.393-2.218-5.944-2.633-8.784-1.03-15.262 8.615-31.75 14.581-49.008 17.731-4.075.744-6.775 4.65-6.031 8.725s4.652 6.775 8.725 6.031c17.154-3.131 33.617-8.803 49.011-16.878 15.6 12.76 35.05 19.729 55.344 19.729 11.334 0 22.375-2.143 32.814-6.37 2.832-1.146 4.686-3.896 4.686-6.952-.001-3.053-1.855-5.803-4.687-6.95z"/><path d="m173.167 165.667c-95.485 0-173.167 77.682-173.167 173.166 0 42.655 15.51 83.328 43.775 115.074-7.605 17.112-21.643 30.756-39.09 37.819-2.831 1.148-4.685 3.897-4.685 6.953 0 3.055 1.854 5.805 4.686 6.952 10.439 4.226 21.48 6.369 32.814 6.369 20.295 0 39.745-6.969 55.345-19.73 24.661 12.922 52.315 19.73 80.321 19.73 95.484 0 173.167-77.682 173.167-173.167s-77.682-173.166-173.166-173.166zm0 331.333c-27.213 0-54.056-7.033-77.626-20.338-1.153-.651-2.423-.969-3.685-.969-1.847 0-3.678.682-5.099 1.999-13.44 12.451-30.933 19.308-49.257 19.308-3.374 0-6.716-.229-10.014-.684 14.516-10.125 25.801-24.531 32.053-41.363.992-2.672.384-5.676-1.569-7.751-27.71-29.445-42.97-67.931-42.97-108.369 0-87.213 70.953-158.167 158.167-158.167s158.167 70.954 158.167 158.167-70.954 158.167-158.167 158.167z"/></g></svg>