<svg clip-rule="evenodd" fill-rule="evenodd" height="512" image-rendering="optimizeQuality" shape-rendering="geometricPrecision" text-rendering="geometricPrecision" viewBox="0 0 512 512" width="512" xmlns="http://www.w3.org/2000/svg" xmlns:xodm="http://www.corel.com/coreldraw/odm/2003"><g id="Layer_x0020_1"><g id="_2077007836288"><g><g id="_200311584"><path d="m497.76 180.22h-483.52c-2.62 0-4.94-1.71-5.73-4.21-.78-2.5.15-5.22 2.3-6.72l241.76-168.21c2.06-1.43 4.8-1.43 6.86 0l241.76 168.21c2.15 1.5 3.08 4.22 2.3 6.72-.79 2.5-3.11 4.21-5.73 4.21zm-464.39-12h445.26l-222.63-154.91z"/></g><g id="_200312064"><path d="m376.74 140.51h-241.48c-3.32 0-6-2.69-6-6 0-3.32 2.68-6 6-6h241.48c3.32 0 6 2.68 6 6 0 3.31-2.68 6-6 6z"/></g><g id="_200312376"><path d="m138.24 222.06h-60.78c-10.88 0-19.74-8.85-19.74-19.73v-28.11c0-3.32 2.69-6 6-6h88.25c3.32 0 6 2.68 6 6v28.11c0 10.88-8.85 19.73-19.73 19.73zm-68.52-41.84v22.11c0 4.26 3.47 7.73 7.74 7.73h60.78c4.26 0 7.73-3.47 7.73-7.73v-22.11z"/></g><g id="_200312040"><path d="m151.97 479.85h-88.25c-3.31 0-6-2.68-6-6v-28.11c0-10.88 8.86-19.73 19.74-19.73h60.78c10.88 0 19.73 8.85 19.73 19.73v28.11c0 3.32-2.69 6-6 6zm-82.25-12h76.25v-22.11c0-4.26-3.47-7.73-7.73-7.73h-60.78c-4.27 0-7.74 3.47-7.74 7.73z"/></g><g><g id="_200312664"><path d="m128.54 438.01h-41.38c-3.32 0-6-2.69-6-6v-215.95c0-3.31 2.68-6 6-6h41.38c3.31 0 6 2.69 6 6v215.95c0 3.31-2.69 6-6 6zm-35.38-12h29.38v-203.95h-29.38z"/></g><g id="_200313360"><path d="m424.85 438.01h-41.39c-3.31 0-6-2.69-6-6v-215.95c0-3.31 2.69-6 6-6h41.39c3.31 0 6 2.69 6 6v215.95c0 3.31-2.69 6-6 6zm-35.39-12h29.39v-203.95h-29.39z"/></g></g><g id="_200312976"><path d="m434.55 222.06h-60.79c-10.88 0-19.73-8.85-19.73-19.73v-28.11c0-3.32 2.69-6 6-6h88.25c3.31 0 6 2.68 6 6v28.11c0 10.88-8.85 19.73-19.73 19.73zm-68.52-41.84v22.11c0 4.26 3.47 7.73 7.73 7.73h60.78c4.27 0 7.74-3.47 7.74-7.73v-22.11z"/></g><g id="_200312856"><path d="m448.28 479.85h-88.25c-3.31 0-6-2.68-6-6v-28.11c0-10.88 8.85-19.73 19.73-19.73h60.78c10.88 0 19.74 8.85 19.74 19.73v28.11c0 3.32-2.69 6-6 6zm-82.25-12h76.25v-22.11c0-4.26-3.47-7.73-7.73-7.73h-60.79c-4.26 0-7.73 3.47-7.73 7.73z"/></g><g id="_200313024"><path d="m497.76 512h-483.52c-3.31 0-6-2.69-6-6v-32.15c0-3.31 2.69-6 6-6h483.52c3.31 0 6 2.69 6 6v32.15c0 3.31-2.69 6-6 6zm-477.52-12h471.52v-20.15h-471.52z"/></g><g id="_200312952"><path d="m311.79 102.7h-111.58c-3.31 0-6-2.68-6-6 0-3.31 2.69-6 6-6h111.58c3.31 0 6 2.69 6 6 0 3.32-2.69 6-6 6z"/></g><g id="_200313384"><path d="m275.62 432.38h-39.24c-3.31 0-5.99-2.69-5.99-6v-20.92c-4.78-1.5-9.41-3.42-13.85-5.74l-14.79 14.8c-1.13 1.13-2.65 1.76-4.25 1.76-1.59 0-3.11-.63-4.24-1.76l-27.74-27.74c-2.34-2.35-2.34-6.15 0-8.49l14.79-14.8c-2.32-4.43-4.24-9.06-5.74-13.84h-20.91c-3.32 0-6-2.68-6-6v-39.23c0-3.32 2.68-6 6-6h20.91c1.5-4.77 3.42-9.4 5.74-13.84l-14.79-14.8c-2.35-2.34-2.35-6.14 0-8.48l27.74-27.75c2.34-2.34 6.14-2.34 8.49 0l14.79 14.8c4.44-2.32 9.07-4.24 13.84-5.74v-20.92c0-3.31 2.69-6 6-6h39.24c3.31 0 6 2.69 6 6v20.92c4.77 1.5 9.4 3.42 13.84 5.74l14.8-14.8c2.34-2.34 6.14-2.34 8.48 0l27.75 27.74c2.34 2.35 2.34 6.15 0 8.49l-14.8 14.8c2.32 4.43 4.24 9.06 5.74 13.84h20.92c3.31 0 6 2.68 6 6v39.23c0 3.32-2.69 6-6 6h-20.92c-1.5 4.77-3.42 9.41-5.74 13.84l14.8 14.8c2.34 2.35 2.34 6.14-.01 8.49l-27.74 27.74c-2.34 2.34-6.14 2.34-8.48 0l-14.8-14.8c-4.44 2.32-9.07 4.24-13.84 5.74v20.92c0 3.31-2.69 6-6 6zm-33.24-12h27.24v-19.45c0-2.74 1.86-5.14 4.52-5.81 6.78-1.73 13.27-4.42 19.29-8 2.36-1.4 5.37-1.02 7.31.91l13.76 13.76 19.26-19.26-13.76-13.76c-1.94-1.94-2.31-4.95-.91-7.31 3.58-6.02 6.27-12.51 8-19.29.67-2.66 3.07-4.52 5.81-4.52h19.45v-27.23h-19.45c-2.74 0-5.14-1.86-5.81-4.52-1.73-6.78-4.42-13.27-8-19.29-1.41-2.36-1.03-5.37.91-7.31l13.76-13.76-19.26-19.26-13.76 13.75c-1.94 1.95-4.95 2.32-7.31.92-6.03-3.59-12.52-6.28-19.29-8-2.66-.67-4.52-3.07-4.52-5.81v-19.45h-27.24v19.45c0 2.74-1.86 5.13-4.52 5.81-6.77 1.72-13.26 4.41-19.29 8-2.36 1.4-5.37 1.03-7.31-.92l-13.76-13.75-19.25 19.26 13.75 13.76c1.94 1.94 2.32 4.95.92 7.3-3.59 6.03-6.28 12.52-8 19.3-.68 2.65-3.07 4.52-5.81 4.52h-19.45v27.23h19.44c2.75 0 5.14 1.86 5.82 4.52 1.72 6.78 4.41 13.27 8 19.29 1.4 2.36 1.02 5.37-.92 7.31l-13.75 13.76 19.25 19.26 13.76-13.75c1.94-1.95 4.95-2.32 7.31-.92 6.03 3.59 12.52 6.28 19.29 8 2.66.68 4.52 3.07 4.52 5.81z"/></g><g id="_200313288"><path d="m256 386.08c-34.21 0-62.05-27.83-62.05-62.05 0-34.21 27.84-62.04 62.05-62.04s62.05 27.83 62.05 62.04c0 34.22-27.84 62.05-62.05 62.05zm0-112.1c-27.6 0-50.05 22.46-50.05 50.05 0 27.6 22.45 50.05 50.05 50.05s50.05-22.45 50.05-50.05c0-27.59-22.45-50.05-50.05-50.05z"/></g><g id="_200313312"><path d="m256 386.08c-18.13 0-35.3-7.9-47.11-21.68-1.61-1.87-1.9-4.54-.74-6.72 7.96-14.97 26.75-24.65 47.85-24.65s39.89 9.68 47.86 24.65c1.16 2.18.86 4.85-.74 6.72-11.82 13.78-28.99 21.68-47.12 21.68zm-34.99-26.27c9.32 9.12 21.84 14.27 34.99 14.27s25.67-5.15 34.99-14.27c-6.89-8.97-20.35-14.78-34.99-14.78s-28.09 5.81-34.99 14.78z"/></g><g id="_200313240"><path d="m256 330.06c-13.22 0-23.97-10.76-23.97-23.98s10.75-23.97 23.97-23.97 23.98 10.75 23.98 23.97-10.76 23.98-23.98 23.98zm0-35.95c-6.6 0-11.97 5.37-11.97 11.97 0 6.61 5.37 11.98 11.97 11.98s11.98-5.37 11.98-11.98c0-6.6-5.38-11.97-11.98-11.97z"/></g></g></g></g></svg>