<svg id="Capa_1" enable-background="new 0 0 512 512" height="512" viewBox="0 0 512 512" width="512" xmlns="http://www.w3.org/2000/svg"><g><path d="m452.956 327.987v-16.534h29.891c4.143 0 7.5-3.358 7.5-7.5s-3.357-7.5-7.5-7.5h-74.781c-4.143 0-7.5 3.358-7.5 7.5s3.357 7.5 7.5 7.5h29.891v16.534c-28.987 3.698-51.473 28.504-51.473 58.48 0 29.975 22.486 54.781 51.473 58.479v37.576h-87.976v-16.407c0-9.644-7.846-17.49-17.49-17.49h-123.877c-9.644 0-17.49 7.846-17.49 17.49v16.407h-92.867v-62.692c16.53-1.505 32.393-7.959 45.256-18.529 14.381-11.817 24.492-28.286 28.471-46.373.89-4.045-1.668-8.046-5.713-8.936-4.042-.889-8.046 1.667-8.936 5.713-3.26 14.817-11.55 28.315-23.345 38.006-12.124 9.962-26.837 15.309-42.551 15.463-18.15.159-35.3-6.779-48.359-19.587-13.06-12.809-20.343-29.842-20.508-47.962-.183-20.047 8.411-39.075 23.576-52.204 13.68-11.844 22.31-28.088 24.429-45.494h40.359c2.117 17.411 10.74 33.65 24.411 45.478 11.064 9.572 18.628 22.123 21.875 36.295.925 4.039 4.953 6.564 8.985 5.636 4.038-.925 6.561-4.947 5.636-8.985-3.963-17.302-13.189-32.618-26.681-44.29-11.298-9.774-18.239-23.309-19.518-37.702 6.619-4.148 11.033-11.504 11.033-19.875 0-8.416-4.46-15.807-11.138-19.943v-16.8c0-14.741-11.993-26.734-26.734-26.734h-.547v-82.089h56.802v39.093c0 10.284 8.367 18.651 18.651 18.651h58.911l-4.684 15.282c-1.748 5.704.649 11.752 5.83 14.709 1.985 1.133 4.154 1.684 6.3 1.684 3.454 0 6.85-1.426 9.331-4.143l25.141-27.533h29.091c4.143 0 7.5-3.358 7.5-7.5s-3.357-7.5-7.5-7.5h-15.394l32.649-35.755c3.382-3.703 4.26-9.061 2.236-13.65s-6.571-7.554-11.587-7.554h-20.312l5.203-10.018h60.435c2.014 0 3.651 1.638 3.651 3.651v59.674c0 2.013-1.638 3.651-3.651 3.651h-19.941c-4.143 0-7.5 3.358-7.5 7.5s3.357 7.5 7.5 7.5h19.939c10.284 0 18.651-8.367 18.651-18.651v-39.091h62.445v51.557c-28.987 3.698-51.473 28.504-51.473 58.479 0 29.976 22.486 54.781 51.473 58.48v16.539h-14.278c-4.143 0-7.5 3.358-7.5 7.5s3.357 7.5 7.5 7.5h43.557c4.143 0 7.5-3.358 7.5-7.5s-3.357-7.5-7.5-7.5h-14.278v-16.539c28.987-3.698 51.473-28.504 51.473-58.48 0-29.975-22.486-54.781-51.473-58.479v-59.057c0-4.142-3.357-7.5-7.5-7.5h-69.945v-5.582c0-10.284-8.367-18.651-18.651-18.651h-52.645l6.848-13.185c2.056-3.959 1.9-8.599-.416-12.412-2.316-3.812-6.363-6.088-10.823-6.088h-42.893c-6.779 0-12.882 3.762-15.927 9.818l-10.997 21.867h-56.296c-10.284 0-18.651 8.367-18.651 18.651v5.582h-64.303c-4.142 0-7.5 3.358-7.5 7.5v89.588h-.547c-14.741 0-26.734 11.993-26.734 26.734v16.8c-6.678 4.136-11.138 11.527-11.138 19.943 0 8.371 4.413 15.727 11.032 19.875-1.282 14.388-8.231 27.93-19.54 37.721-18.499 16.015-28.98 39.226-28.757 63.681.201 22.13 9.081 42.918 25.004 58.535 13.907 13.64 31.66 21.823 50.68 23.533v70.193c0 4.142 3.358 7.5 7.5 7.5h100.645c1.434 8.211 8.596 14.478 17.212 14.478h123.877c8.615 0 15.778-6.267 17.212-14.478h95.754c4.143 0 7.5-3.358 7.5-7.5v-45.068c6.392-.808 12.566-2.642 18.423-5.512 3.72-1.823 5.257-6.316 3.434-10.035s-6.315-5.258-10.035-3.434c-6.048 2.964-12.548 4.467-19.321 4.467-24.247 0-43.973-19.726-43.973-43.973s19.726-43.973 43.973-43.973 43.974 19.726 43.974 43.973c0 6.804-1.519 13.334-4.514 19.41-1.831 3.715-.304 8.212 3.412 10.043 3.714 1.832 8.212.304 10.043-3.411 4.021-8.157 6.059-16.918 6.059-26.042-.002-29.976-22.488-54.781-51.476-58.479zm36.473-147.033c0 24.247-19.726 43.973-43.973 43.973s-43.973-19.726-43.973-43.973 19.726-43.973 43.973-43.973 43.973 19.727 43.973 43.973zm-235.024-164.397c.483-.96 1.451-1.557 2.526-1.557h39.047l-23.758 45.747c-1.207 2.325-1.114 5.111.246 7.351 1.36 2.239 3.79 3.606 6.41 3.606h27.36l-60.914 66.709 12.413-40.498c.697-2.274.273-4.744-1.141-6.657s-3.652-3.041-6.03-3.041h-32.198zm-84.346 33.78c0-2.013 1.638-3.651 3.651-3.651h48.753l-19.2 38.178c-1.989 3.955-1.79 8.566.533 12.335s6.353 6.019 10.78 6.019h25.845l-3.202 10.445h-63.509c-2.013 0-3.651-1.638-3.651-3.651zm-48.382 166.147c0 4.655-3.788 8.443-8.443 8.443h-44.953c-4.655 0-8.443-3.788-8.443-8.443 0-4.656 3.788-8.443 8.443-8.443h44.953c4.655 0 8.443 3.788 8.443 8.443zm-38.967-48.478h16.094c6.47 0 11.734 5.264 11.734 11.734v13.3h-39.562v-13.3c0-6.469 5.264-11.734 11.734-11.734zm123.414 326.503v-28.395c0-1.373 1.117-2.49 2.49-2.49h56.128v33.376h-56.128c-1.373 0-2.49-1.118-2.49-2.491zm128.857 0c0 1.373-1.117 2.49-2.49 2.49h-52.749v-33.375h52.749c1.373 0 2.49 1.117 2.49 2.49z"/><path d="m445.456 411.071c4.143 0 7.5-3.358 7.5-7.5v-9.603h9.603c4.143 0 7.5-3.358 7.5-7.5s-3.357-7.5-7.5-7.5h-9.603v-9.603c0-4.142-3.357-7.5-7.5-7.5s-7.5 3.358-7.5 7.5v9.603h-9.603c-4.143 0-7.5 3.358-7.5 7.5s3.357 7.5 7.5 7.5h9.603v9.603c0 4.142 3.358 7.5 7.5 7.5z"/><path d="m420.854 180.957c0 4.142 3.357 7.5 7.5 7.5h34.205c4.143 0 7.5-3.358 7.5-7.5s-3.357-7.5-7.5-7.5h-34.205c-4.143 0-7.5 3.358-7.5 7.5z"/></g></svg>