<svg fill="none" height="512" viewBox="0 0 64 64" width="512" xmlns="http://www.w3.org/2000/svg"><g clip-rule="evenodd" fill="rgb(0,0,0)" fill-rule="evenodd"><path d="m31.5989 47.9161c.3639.1593.7875.0881 1.0794-.1813l13-12c.2051-.1893.3217-.4557.3217-.7348s-.1166-.5455-.3217-.7348l-13-12c-.2919-.2694-.7155-.3405-1.0794-.1812-.3638.1593-.5989.5188-.5989.916v6.0001l-12-.0001c-.2652 0-.5196.1054-.7071.2929s-.2929.4419-.2929.7071v10c0 .5523.4477 1 1 1l12 .0001v5.9999c0 .3972.2351.7568.5989.9161zm1.4011-3.2001v-4.7159c0-.5523-.4477-1-1-1l-12-.0001v-8l12 .0001c.2652 0 .5196-.1054.7071-.2929.1875-.1876.2929-.4419.2929-.7071v-4.7161l10.5257 9.716z"/><path d="m32.4142 14h24.5858c1.6569 0 3 1.3431 3 3v36c0 1.6569-1.3431 3-3 3h-50c-1.65686 0-3-1.3431-3-3v-42c0-1.65685 1.34315-3 3-3h18.1716c.7956 0 1.5587.31607 2.1213.87868zm-25.4142-4c-.55228 0-1 .4477-1 1v42c0 .5523.44771 1 1 1h50c.5523 0 1-.4477 1-1v-36c0-.5523-.4477-1-1-1h-25c-.0001 0 .0001 0 0 0h-20c-.5523 0-1-.4477-1-1s.4477-1 1-1h17.5858l-3.7071-3.7071c-.1876-.1875-.4419-.2929-.7071-.2929z"/></g></svg>