<svg viewBox="0 -42 512 512" xmlns="http://www.w3.org/2000/svg"><path d="m497 0h-482c-8.285156 0-15 6.714844-15 15v397.445312c0 8.285157 6.714844 15 15 15h482c8.285156 0 15-6.714843 15-15v-397.445312c0-8.285156-6.714844-15-15-15zm-335.4375 371.328125v26.117187h-50.332031v-26.117187zm30 0h50.332031v26.117187h-50.332031zm80.332031 0h50.335938v26.117187h-50.335938zm80.335938 0h50.332031v26.117187h-50.332031zm-322.230469-30v-255.210937h452v255.210937zm322.230469-285.210937v-26.117188h50.332031v26.117188zm-30 0h-50.335938v-26.117188h50.335938zm-80.335938 0h-50.332031v-26.117188h50.332031zm-80.332031 0h-50.332031v-26.117188h50.332031zm320.4375 0h-49.4375v-26.117188h49.4375zm-400.769531-26.117188v26.117188h-51.230469v-26.117188zm-51.230469 341.328125h51.230469v26.117187h-51.230469zm402.5625 26.117187v-26.117187h49.4375v26.117187zm0 0"/><path d="m311.472656 198.269531c-.40625-.296875-.832031-.574219-1.269531-.828125l-85.828125-50.101562c-6.21875-4.066406-14.390625-4.527344-21.109375-1.105469-6.617187 3.363281-10.726563 9.929687-10.726563 17.132813v100.714843c0 7.203125 4.109376 13.765625 10.726563 17.132813 3.007813 1.53125 6.308594 2.285156 9.59375 2.285156 4.050781 0 8.082031-1.144531 11.515625-3.394531l85.828125-50.097657c.4375-.253906.863281-.53125 1.269531-.828124 5.074219-3.699219 7.988282-9.328126 7.988282-15.453126s-2.914063-11.761718-7.988282-15.457031zm-88.929687 48.167969v-65.429688l56.046875 32.714844zm0 0"/></svg>